# Rhino

mtllib in_jalapeno.mtl
usemtl diffuse_0_0_0_255
v 1.1631120443344116 0.46596521139144897 1.8547433614730835
v 1.1631120443344116 0.2024417519569397 1.8547433614730835
v 0.90084630250930786 0.46596521139144897 2.0760283470153809
v 0.90084630250930786 0.2024417519569397 2.0760283470153809
v 0.59419822692871094 0.46596521139144897 2.2382872104644775
v 0.59419822692871094 0.2024417519569397 2.2382872104644775
v 0.42785495519638062 0.46596521139144897 2.2909095287322998
v 0.42785495519638062 0.2024417519569397 2.2909095287322998
v 0.25562512874603271 0.46596521139144897 2.3217976093292236
v 0.25562512874603271 0.2024417519569397 2.3217976093292236
v 0.080035559833049774 0.46596521139144897 2.3295843601226807
v 0.080035559833049774 0.2024417519569397 2.3295843601226807
v -0.096170432865619659 0.46596521139144897 2.3135867118835449
v -0.096170432865619659 0.2024417519569397 2.3135867118835449
v -0.27017113566398621 0.46596521139144897 2.2738709449768066
v -0.27017113566398621 0.2024417519569397 2.2738709449768066
v -0.43921494483947754 0.46596521139144897 2.2112576961517334
v -0.43921494483947754 0.2024417519569397 2.2112576961517334
v -0.60076367855072021 0.46596521139144897 2.1272697448730469
v -0.60076367855072021 0.2024417519569397 2.1272697448730469
v -0.75261467695236206 0.46596521139144897 2.02402663230896
v -0.75261467695236206 0.2024417519569397 2.02402663230896
v -1.0205895900726318 0.46596521139144897 1.7703524827957153
v -1.0205895900726318 0.2024417519569397 1.7703524827957153
v -1.2346595525741577 0.46596521139144897 1.4732887744903564
v -1.2346595525741577 0.2024417519569397 1.4732887744903564
v -1.4038311243057251 0.46596521139144897 1.1302320957183838
v -1.4038311243057251 0.2024417519569397 1.1302320957183838
v -1.5278776884078979 0.46596521139144897 0.72912114858627319
v -1.5278776884078979 0.2024417519569397 0.72912114858627319
v -1.5917211771011353 0.46596521139144897 0.28625059127807617
v -1.5917211771011353 0.2024417519569397 0.28625059127807617
v -1.5854438543319702 0.46596521139144897 -0.17391552031040192
v -1.5854438543319702 0.2024417519569397 -0.17391552031040192
v -1.5072135925292969 0.46596521139144897 -0.62263482809066772
v -1.5072135925292969 0.2024417519569397 -0.62263482809066772
v -1.3640760183334351 0.46596521139144897 -1.0325773954391479
v -1.3640760183334351 0.2024417519569397 -1.0325773954391479
v -1.1701430082321167 0.46596521139144897 -1.3831018209457397
v -1.1701430082321167 0.2024417519569397 -1.3831018209457397
v -0.9430387020111084 0.46596521139144897 -1.6631160974502563
v -0.9430387020111084 0.2024417519569397 -1.6631160974502563
v -0.68077296018600464 0.46596521139144897 -1.8844009637832642
v -0.68077296018600464 0.2024417519569397 -1.8844009637832642
v -0.3741249144077301 0.46596521139144897 -2.0466599464416504
v -0.3741249144077301 0.2024417519569397 -2.0466599464416504
v -0.20778164267539978 0.46596521139144897 -2.0992822647094727
v -0.20778164267539978 0.2024417519569397 -2.0992822647094727
v -0.035551797598600388 0.46596521139144897 -2.1301703453063965
v -0.035551797598600388 0.2024417519569397 -2.1301703453063965
v 0.14003776013851166 0.46596521139144897 -2.1379570960998535
v 0.14003776013851166 0.2024417519569397 -2.1379570960998535
v 0.31624376773834229 0.46596521139144897 -2.1219594478607178
v 0.31624376773834229 0.2024417519569397 -2.1219594478607178
v 0.49024444818496704 0.46596521139144897 -2.0822436809539795
v 0.49024444818496704 0.2024417519569397 -2.0822436809539795
v 0.65928828716278076 0.46596521139144897 -2.0196304321289063
v 0.65928828716278076 0.2024417519569397 -2.0196304321289063
v 0.82083702087402344 0.46596521139144897 -1.9356423616409302
v 0.82083702087402344 0.2024417519569397 -1.9356423616409302
v 0.97268801927566528 0.46596521139144897 -1.8323992490768433
v 0.97268801927566528 0.2024417519569397 -1.8323992490768433
v 1.2406629323959351 0.46596521139144897 -1.5787252187728882
v 1.2406629323959351 0.2024417519569397 -1.5787252187728882
v 1.4547328948974609 0.46596521139144897 -1.2816613912582397
v 1.4547328948974609 0.2024417519569397 -1.2816613912582397
v 1.6239044666290283 0.46596521139144897 -0.93860477209091187
v 1.6239044666290283 0.2024417519569397 -0.93860477209091187
v 1.7479509115219116 0.46596521139144897 -0.53749388456344604
v 1.7479509115219116 0.2024417519569397 -0.53749388456344604
v 1.8117945194244385 0.46596521139144897 -0.094623327255249023
v 1.8117945194244385 0.2024417519569397 -0.094623327255249023
v 1.8055171966552734 0.46596521139144897 0.36554279923439026
v 1.8055171966552734 0.2024417519569397 0.36554279923439026
v 1.7272869348526001 0.46596521139144897 0.81426209211349487
v 1.7272869348526001 0.2024417519569397 0.81426209211349487
v 1.5841493606567383 0.46596521139144897 1.2242046594619751
v 1.5841493606567383 0.2024417519569397 1.2242046594619751
v 1.3902163505554199 0.46596521139144897 1.5747290849685669
v 1.3902163505554199 0.2024417519569397 1.5747290849685669
v 1.1631120443344116 0.46596521139144897 1.8547433614730835
v 1.1631120443344116 0.2024417519569397 1.8547433614730835
v 1.1631120443344116 0.46596521139144897 1.8547433614730835
v 0.90084630250930786 0.46596521139144897 2.0760283470153809
v 0.59419822692871094 0.46596521139144897 2.2382872104644775
v 0.42785495519638062 0.46596521139144897 2.2909095287322998
v 0.25562512874603271 0.46596521139144897 2.3217976093292236
v 0.080035559833049774 0.46596521139144897 2.3295843601226807
v -0.096170432865619659 0.46596521139144897 2.3135867118835449
v -0.27017113566398621 0.46596521139144897 2.2738709449768066
v -0.43921494483947754 0.46596521139144897 2.2112576961517334
v -0.60076367855072021 0.46596521139144897 2.1272697448730469
v -0.75261467695236206 0.46596521139144897 2.02402663230896
v -1.0205895900726318 0.46596521139144897 1.7703524827957153
v -1.2346595525741577 0.46596521139144897 1.4732887744903564
v -1.4038311243057251 0.46596521139144897 1.1302320957183838
v -1.5278776884078979 0.46596521139144897 0.72912114858627319
v -1.5917211771011353 0.46596521139144897 0.28625059127807617
v -1.5854438543319702 0.46596521139144897 -0.17391552031040192
v -1.5072135925292969 0.46596521139144897 -0.62263482809066772
v -1.3640760183334351 0.46596521139144897 -1.0325773954391479
v -1.1701430082321167 0.46596521139144897 -1.3831018209457397
v -0.9430387020111084 0.46596521139144897 -1.6631160974502563
v -0.68077296018600464 0.46596521139144897 -1.8844009637832642
v -0.3741249144077301 0.46596521139144897 -2.0466599464416504
v -0.20778164267539978 0.46596521139144897 -2.0992822647094727
v -0.035551797598600388 0.46596521139144897 -2.1301703453063965
v 0.14003776013851166 0.46596521139144897 -2.1379570960998535
v 0.31624376773834229 0.46596521139144897 -2.1219594478607178
v 0.49024444818496704 0.46596521139144897 -2.0822436809539795
v 0.65928828716278076 0.46596521139144897 -2.0196304321289063
v 0.82083702087402344 0.46596521139144897 -1.9356423616409302
v 0.97268801927566528 0.46596521139144897 -1.8323992490768433
v 1.2406629323959351 0.46596521139144897 -1.5787252187728882
v 1.4547328948974609 0.46596521139144897 -1.2816613912582397
v 1.6239044666290283 0.46596521139144897 -0.93860477209091187
v 1.7479509115219116 0.46596521139144897 -0.53749388456344604
v 1.8117945194244385 0.46596521139144897 -0.094623327255249023
v 1.8055171966552734 0.46596521139144897 0.36554279923439026
v 1.7272869348526001 0.46596521139144897 0.81426209211349487
v 1.5841493606567383 0.46596521139144897 1.2242046594619751
v 1.3902163505554199 0.46596521139144897 1.5747290849685669
v 1.1631120443344116 0.2024417519569397 1.8547433614730835
v 0.90084630250930786 0.2024417519569397 2.0760283470153809
v 0.59419822692871094 0.2024417519569397 2.2382872104644775
v 0.42785495519638062 0.2024417519569397 2.2909095287322998
v 0.25562512874603271 0.2024417519569397 2.3217976093292236
v 0.080035559833049774 0.2024417519569397 2.3295843601226807
v -0.096170432865619659 0.2024417519569397 2.3135867118835449
v -0.27017113566398621 0.2024417519569397 2.2738709449768066
v -0.43921494483947754 0.2024417519569397 2.2112576961517334
v -0.60076367855072021 0.2024417519569397 2.1272697448730469
v -0.75261467695236206 0.2024417519569397 2.02402663230896
v -1.0205895900726318 0.2024417519569397 1.7703524827957153
v -1.2346595525741577 0.2024417519569397 1.4732887744903564
v -1.4038311243057251 0.2024417519569397 1.1302320957183838
v -1.5278776884078979 0.2024417519569397 0.72912114858627319
v -1.5917211771011353 0.2024417519569397 0.28625059127807617
v -1.5854438543319702 0.2024417519569397 -0.17391552031040192
v -1.5072135925292969 0.2024417519569397 -0.62263482809066772
v -1.3640760183334351 0.2024417519569397 -1.0325773954391479
v -1.1701430082321167 0.2024417519569397 -1.3831018209457397
v -0.9430387020111084 0.2024417519569397 -1.6631160974502563
v -0.68077296018600464 0.2024417519569397 -1.8844009637832642
v -0.3741249144077301 0.2024417519569397 -2.0466599464416504
v -0.20778164267539978 0.2024417519569397 -2.0992822647094727
v -0.035551797598600388 0.2024417519569397 -2.1301703453063965
v 0.14003776013851166 0.2024417519569397 -2.1379570960998535
v 0.31624376773834229 0.2024417519569397 -2.1219594478607178
v 0.49024444818496704 0.2024417519569397 -2.0822436809539795
v 0.65928828716278076 0.2024417519569397 -2.0196304321289063
v 0.82083702087402344 0.2024417519569397 -1.9356423616409302
v 0.97268801927566528 0.2024417519569397 -1.8323992490768433
v 1.2406629323959351 0.2024417519569397 -1.5787252187728882
v 1.4547328948974609 0.2024417519569397 -1.2816613912582397
v 1.6239044666290283 0.2024417519569397 -0.93860477209091187
v 1.7479509115219116 0.2024417519569397 -0.53749388456344604
v 1.8117945194244385 0.2024417519569397 -0.094623327255249023
v 1.8055171966552734 0.2024417519569397 0.36554279923439026
v 1.7272869348526001 0.2024417519569397 0.81426209211349487
v 1.5841493606567383 0.2024417519569397 1.2242046594619751
v 1.3902163505554199 0.2024417519569397 1.5747290849685669
vt 0 0
vt 0 0.5160830020904541
vt 0.03125 0
vt 0.03125 0.5160830020904541
vt 0.0625 0
vt 0.0625 0.5160830020904541
vt 0.078125 0
vt 0.078125 0.5160830020904541
vt 0.09375 0
vt 0.09375 0.5160830020904541
vt 0.109375 0
vt 0.109375 0.5160830020904541
vt 0.125 0
vt 0.125 0.5160830020904541
vt 0.140625 0
vt 0.140625 0.5160830020904541
vt 0.15625 0
vt 0.15625 0.5160830020904541
vt 0.171875 0
vt 0.171875 0.5160830020904541
vt 0.1875 0
vt 0.1875 0.5160830020904541
vt 0.21875 0
vt 0.21875 0.5160830020904541
vt 0.25 0
vt 0.25 0.5160830020904541
vt 0.28125 0
vt 0.28125 0.5160830020904541
vt 0.3125 0
vt 0.3125 0.5160830020904541
vt 0.34375 0
vt 0.34375 0.5160830020904541
vt 0.375 0
vt 0.375 0.5160830020904541
vt 0.40625 0
vt 0.40625 0.5160830020904541
vt 0.4375 0
vt 0.4375 0.5160830020904541
vt 0.46875 0
vt 0.46875 0.5160830020904541
vt 0.5 0
vt 0.5 0.5160830020904541
vt 0.53125 0
vt 0.53125 0.5160830020904541
vt 0.5625 0
vt 0.5625 0.5160830020904541
vt 0.578125 0
vt 0.578125 0.5160830020904541
vt 0.59375 0
vt 0.59375 0.5160830020904541
vt 0.609375 0
vt 0.609375 0.5160830020904541
vt 0.625 0
vt 0.625 0.5160830020904541
vt 0.640625 0
vt 0.640625 0.5160830020904541
vt 0.65625 0
vt 0.65625 0.5160830020904541
vt 0.671875 0
vt 0.671875 0.5160830020904541
vt 0.6875 0
vt 0.6875 0.5160830020904541
vt 0.71875 0
vt 0.71875 0.5160830020904541
vt 0.75 0
vt 0.75 0.5160830020904541
vt 0.78125 0
vt 0.78125 0.5160830020904541
vt 0.8125 0
vt 0.8125 0.5160830020904541
vt 0.84375 0
vt 0.84375 0.5160830020904541
vt 0.875 0
vt 0.875 0.5160830020904541
vt 0.90625 0
vt 0.90625 0.5160830020904541
vt 0.9375 0
vt 0.9375 0.5160830020904541
vt 0.96875 0
vt 0.96875 0.5160830020904541
vt 1 0
vt 1 0.5160830020904541
vt 0.11790584027767181 0.51608353853225708
vt 0.090417772531509399 0.5201229453086853
vt 0.063833855092525482 0.53307181596755981
vt 0.0514516681432724 0.54311412572860718
vt 0.039990220218896866 0.55552381277084351
vt 0.029670296236872673 0.57019674777984619
vt 0.020685434341430664 0.58695149421691895
vt 0.013190480880439281 0.60553592443466187
vt 0.0072928532026708126 0.62563985586166382
vt 0.0030475505627691746 0.64691168069839478
vt 0.00045633799163624644 0.66897821426391602
vt 0 0.71401429176330566
vt 0.0050729420036077499 0.75804179906845093
vt 0.01531874667853117 0.80206924676895142
vt 0.031444769352674484 0.84710532426834106
vt 0.053360268473625183 0.89044368267059326
vt 0.080213949084281921 0.92913210391998291
vt 0.11045354604721069 0.96055972576141357
vt 0.14210903644561768 0.98301172256469727
vt 0.17319834232330322 0.99596059322357178
vt 0.20209185779094696 1
vt 0.22957992553710938 0.99596059322357178
vt 0.2561638355255127 0.98301172256469727
vt 0.26854604482650757 0.9729694128036499
vt 0.28000748157501221 0.96055972576141357
vt 0.29032739996910095 0.94588679075241089
vt 0.29931226372718811 0.92913210391998291
vt 0.30680721998214722 0.91054761409759521
vt 0.31270486116409302 0.89044368267059326
vt 0.31695014238357544 0.8691718578338623
vt 0.31954136490821838 0.84710532426834106
vt 0.31999769806861877 0.80206924676895142
vt 0.31492474675178528 0.75804179906845093
vt 0.30467894673347473 0.71401429176330566
vt 0.28855293989181519 0.66897821426391602
vt 0.26663744449615479 0.62563985586166382
vt 0.23978376388549805 0.58695149421691895
vt 0.20954415202140808 0.55552381277084351
vt 0.1778886616230011 0.53307181596755981
vt 0.14679935574531555 0.5201229453086853
vt 0.11790584027767181 1
vt 0.090417772531509399 0.99596059322357178
vt 0.063833855092525482 0.98301172256469727
vt 0.0514516681432724 0.9729694128036499
vt 0.039990220218896866 0.96055972576141357
vt 0.029670296236872673 0.94588679075241089
vt 0.020685434341430664 0.92913210391998291
vt 0.013190480880439281 0.91054761409759521
vt 0.0072928532026708126 0.89044368267059326
vt 0.0030475505627691746 0.8691718578338623
vt 0.00045633799163624644 0.84710532426834106
vt 0 0.80206924676895142
vt 0.0050729420036077499 0.75804179906845093
vt 0.01531874667853117 0.71401429176330566
vt 0.031444769352674484 0.66897821426391602
vt 0.053360268473625183 0.62563985586166382
vt 0.080213949084281921 0.58695149421691895
vt 0.11045354604721069 0.55552381277084351
vt 0.14210903644561768 0.53307181596755981
vt 0.17319834232330322 0.5201229453086853
vt 0.20209185779094696 0.51608353853225708
vt 0.22957992553710938 0.5201229453086853
vt 0.2561638355255127 0.53307181596755981
vt 0.26854604482650757 0.54311412572860718
vt 0.28000748157501221 0.55552381277084351
vt 0.29032739996910095 0.57019674777984619
vt 0.29931226372718811 0.58695149421691895
vt 0.30680721998214722 0.60553592443466187
vt 0.31270486116409302 0.62563985586166382
vt 0.31695014238357544 0.64691168069839478
vt 0.31954136490821838 0.66897821426391602
vt 0.31999769806861877 0.71401429176330566
vt 0.31492474675178528 0.75804179906845093
vt 0.30467894673347473 0.80206924676895142
vt 0.28855293989181519 0.84710532426834106
vt 0.26663744449615479 0.89044368267059326
vt 0.23978376388549805 0.92913210391998291
vt 0.20954415202140808 0.96055972576141357
vt 0.1778886616230011 0.98301172256469727
vt 0.14679935574531555 0.99596059322357178
vn 0.71556949615478516 0 0.69854158163070679
vn 0.71556949615478516 0 0.69854158163070679
vn 0.56416898965835571 0 0.82565933465957642
vn 0.56416898965835571 0 0.82565933465957642
vn 0.36063560843467712 0 0.93270677328109741
vn 0.36063560843467712 0 0.93270677328109741
vn 0.24045887589454651 0 0.97065931558609009
vn 0.24045887589454651 0 0.97065931558609009
vn 0.11121184378862381 0 0.993796706199646
vn 0.11121184378862381 0 0.993796706199646
vn -0.022973785176873207 0 0.99973607063293457
vn -0.022973785176873207 0 0.99973607063293457
vn -0.15711142122745514 0 0.98758089542388916
vn -0.15711142122745514 0 0.98758089542388916
vn -0.28618377447128296 0 0.95817476511001587
vn -0.28618377447128296 0 0.95817476511001587
vn -0.40598303079605103 0 0.91388064622879028
vn -0.40598303079605103 0 0.91388064622879028
vn -0.51365756988525391 0 0.85799527168273926
vn -0.51365756988525391 0 0.85799527168273926
vn -0.60783356428146362 0 0.79406446218490601
vn -0.60783356428146362 0 0.79406446218490601
vn -0.75608038902282715 0 0.65447878837585449
vn -0.75608038902282715 0 0.65447878837585449
vn -0.85798370838165283 0 0.51367688179016113
vn -0.85798370838165283 0 0.51367688179016113
vn -0.92868292331695557 0 0.37087464332580566
vn -0.92868292331695557 0 0.37087464332580566
vn -0.97540408372879028 0 0.22042427957057953
vn -0.97540408372879028 0 0.22042427957057953
vn -0.99786800146102905 0 0.065264642238616943
vn -0.99786800146102905 0 0.065264642238616943
vn -0.995705246925354 0 -0.092580020427703857
vn -0.995705246925354 0 -0.092580020427703857
vn -0.96790754795074463 0 -0.25130647420883179
vn -0.96790754795074463 0 -0.25130647420883179
vn -0.91281300783157349 0 -0.40837779641151428
vn -0.91281300783157349 0 -0.40837779641151428
vn -0.82877695560455322 0 -0.55957907438278198
vn -0.82877695560455322 0 -0.55957907438278198
vn -0.71556949615478516 0 -0.69854158163070679
vn -0.71556949615478516 0 -0.69854158163070679
vn -0.56416898965835571 0 -0.82565933465957642
vn -0.56416898965835571 0 -0.82565933465957642
vn -0.36063560843467712 0 -0.93270677328109741
vn -0.36063560843467712 0 -0.93270677328109741
vn -0.24045887589454651 0 -0.97065931558609009
vn -0.24045887589454651 0 -0.97065931558609009
vn -0.11121184378862381 0 -0.993796706199646
vn -0.11121184378862381 0 -0.993796706199646
vn 0.022973785176873207 0 -0.99973607063293457
vn 0.022973785176873207 0 -0.99973607063293457
vn 0.15711142122745514 0 -0.98758089542388916
vn 0.15711142122745514 0 -0.98758089542388916
vn 0.28618377447128296 0 -0.95817476511001587
vn 0.28618377447128296 0 -0.95817476511001587
vn 0.40598303079605103 0 -0.91388064622879028
vn 0.40598303079605103 0 -0.91388064622879028
vn 0.51365756988525391 0 -0.85799527168273926
vn 0.51365756988525391 0 -0.85799527168273926
vn 0.60783356428146362 0 -0.79406446218490601
vn 0.60783356428146362 0 -0.79406446218490601
vn 0.75608038902282715 0 -0.65447878837585449
vn 0.75608038902282715 0 -0.65447878837585449
vn 0.85798370838165283 0 -0.51367688179016113
vn 0.85798370838165283 0 -0.51367688179016113
vn 0.92868292331695557 0 -0.37087464332580566
vn 0.92868292331695557 0 -0.37087464332580566
vn 0.97540408372879028 0 -0.22042427957057953
vn 0.97540408372879028 0 -0.22042427957057953
vn 0.99786800146102905 0 -0.065264642238616943
vn 0.99786800146102905 0 -0.065264642238616943
vn 0.995705246925354 0 0.092580020427703857
vn 0.995705246925354 0 0.092580020427703857
vn 0.96790754795074463 0 0.25130647420883179
vn 0.96790754795074463 0 0.25130647420883179
vn 0.91281300783157349 0 0.40837779641151428
vn 0.91281300783157349 0 0.40837779641151428
vn 0.82877695560455322 0 0.55957907438278198
vn 0.82877695560455322 0 0.55957907438278198
vn 0.71556949615478516 0 0.69854158163070679
vn 0.71556949615478516 0 0.69854158163070679
vn 0 1 0
vn 0 1 0
vn 0 1 0
vn 0 1 0
vn 0 1 0
vn 0 1 0
vn 0 1 0
vn 0 1 0
vn 0 1 0
vn 0 1 0
vn 0 1 0
vn 0 1 0
vn 0 1 0
vn 0 1 0
vn 0 1 0
vn 0 1 0
vn 0 1 0
vn 0 1 0
vn 0 1 0
vn 0 1 0
vn 0 1 0
vn 0 1 0
vn 0 1 0
vn 0 1 0
vn 0 1 0
vn 0 1 0
vn 0 1 0
vn 0 1 0
vn 0 1 0
vn 0 1 0
vn 0 1 0
vn 0 1 0
vn 0 1 0
vn 0 1 0
vn 0 1 0
vn 0 1 0
vn 0 1 0
vn 0 1 0
vn 0 1 0
vn 0 1 0
vn 0 -1 0
vn 0 -1 0
vn 0 -1 0
vn 0 -1 0
vn 0 -1 0
vn 0 -1 0
vn 0 -1 0
vn 0 -1 0
vn 0 -1 0
vn 0 -1 0
vn 0 -1 0
vn 0 -1 0
vn 0 -1 0
vn 0 -1 0
vn 0 -1 0
vn 0 -1 0
vn 0 -1 0
vn 0 -1 0
vn 0 -1 0
vn 0 -1 0
vn 0 -1 0
vn 0 -1 0
vn 0 -1 0
vn 0 -1 0
vn 0 -1 0
vn 0 -1 0
vn 0 -1 0
vn 0 -1 0
vn 0 -1 0
vn 0 -1 0
vn 0 -1 0
vn 0 -1 0
vn 0 -1 0
vn 0 -1 0
vn 0 -1 0
vn 0 -1 0
vn 0 -1 0
vn 0 -1 0
vn 0 -1 0
vn 0 -1 0
f 110/110/110 109/109/109 108/108/108 107/107/107 106/106/106 105/105/105 104/104/104 103/103/103 102/102/102 101/101/101 100/100/100 99/99/99 98/98/98 97/97/97 96/96/96 95/95/95 94/94/94 93/93/93 92/92/92 91/91/91 90/90/90 89/89/89 88/88/88 87/87/87 86/86/86 85/85/85 84/84/84 83/83/83 122/122/122 121/121/121 120/120/120 119/119/119 118/118/118 117/117/117 116/116/116 115/115/115 114/114/114 113/113/113 112/112/112 111/111/111
f 149/149/149 150/150/150 151/151/151 152/152/152 153/153/153 154/154/154 155/155/155 156/156/156 157/157/157 158/158/158 159/159/159 160/160/160 161/161/161 162/162/162 123/123/123 124/124/124 125/125/125 126/126/126 127/127/127 128/128/128 129/129/129 130/130/130 131/131/131 132/132/132 133/133/133 134/134/134 135/135/135 136/136/136 137/137/137 138/138/138 139/139/139 140/140/140 141/141/141 142/142/142 143/143/143 144/144/144 145/145/145 146/146/146 147/147/147 148/148/148
f 1/1/1 3/3/3 4/4/4 2/2/2
f 3/3/3 5/5/5 6/6/6 4/4/4
f 5/5/5 7/7/7 8/8/8 6/6/6
f 7/7/7 9/9/9 10/10/10 8/8/8
f 9/9/9 11/11/11 12/12/12 10/10/10
f 11/11/11 13/13/13 14/14/14 12/12/12
f 13/13/13 15/15/15 16/16/16 14/14/14
f 15/15/15 17/17/17 18/18/18 16/16/16
f 17/17/17 19/19/19 20/20/20 18/18/18
f 19/19/19 21/21/21 22/22/22 20/20/20
f 21/21/21 23/23/23 24/24/24 22/22/22
f 23/23/23 25/25/25 26/26/26 24/24/24
f 25/25/25 27/27/27 28/28/28 26/26/26
f 27/27/27 29/29/29 30/30/30 28/28/28
f 29/29/29 31/31/31 32/32/32 30/30/30
f 31/31/31 33/33/33 34/34/34 32/32/32
f 33/33/33 35/35/35 36/36/36 34/34/34
f 35/35/35 37/37/37 38/38/38 36/36/36
f 37/37/37 39/39/39 40/40/40 38/38/38
f 39/39/39 41/41/41 42/42/42 40/40/40
f 41/41/41 43/43/43 44/44/44 42/42/42
f 43/43/43 45/45/45 46/46/46 44/44/44
f 45/45/45 47/47/47 48/48/48 46/46/46
f 47/47/47 49/49/49 50/50/50 48/48/48
f 49/49/49 51/51/51 52/52/52 50/50/50
f 51/51/51 53/53/53 54/54/54 52/52/52
f 53/53/53 55/55/55 56/56/56 54/54/54
f 55/55/55 57/57/57 58/58/58 56/56/56
f 57/57/57 59/59/59 60/60/60 58/58/58
f 59/59/59 61/61/61 62/62/62 60/60/60
f 61/61/61 63/63/63 64/64/64 62/62/62
f 63/63/63 65/65/65 66/66/66 64/64/64
f 65/65/65 67/67/67 68/68/68 66/66/66
f 67/67/67 69/69/69 70/70/70 68/68/68
f 69/69/69 71/71/71 72/72/72 70/70/70
f 71/71/71 73/73/73 74/74/74 72/72/72
f 73/73/73 75/75/75 76/76/76 74/74/74
f 75/75/75 77/77/77 78/78/78 76/76/76
f 77/77/77 79/79/79 80/80/80 78/78/78
f 79/79/79 81/81/81 82/82/82 80/80/80
