# Rhino

mtllib Done.mtl
usemtl diffuse_0_0_0_255
v -1.8638952970504761 0.58368468284606934 -1.6153758764266968
v -1.8638952970504761 0 -1.6153758764266968
v -1.5294637680053711 0.58368468284606934 -1.9224518537521362
v -1.5294637680053711 0 -1.9224518537521362
v -1.1429613828659058 0.58368468284606934 -2.1606869697570801
v -1.1429613828659058 0 -2.1606869697570801
v -0.71835732460021973 0.58368468284606934 -2.3214709758758545
v -0.71835732460021973 0 -2.3214709758758545
v -0.27099782228469849 0.58368468284606934 -2.3989923000335693
v -0.27099782228469849 0 -2.3989923000335693
v 0.18294832110404968 0.58368468284606934 -2.3904495239257813
v 0.18294832110404968 0 -2.3904495239257813
v 0.62707436084747314 0.58368468284606934 -2.2961511611938477
v 0.62707436084747314 0 -2.2961511611938477
v 1.0453283786773682 0.58368468284606934 -2.1195056438446045
v 1.0453283786773682 0 -2.1195056438446045
v 1.4225935935974121 0.58368468284606934 -1.8668971061706543
v 1.4225935935974121 0 -1.8668971061706543
v 1.7452346086502075 0.58368468284606934 -1.5474556684494019
v 1.7452346086502075 0 -1.5474556684494019
v 2.0015904903411865 0.58368468284606934 -1.1727267503738403
v 2.0015904903411865 0 -1.1727267503738403
v 2.1823956966400146 0.58368468284606934 -0.75625401735305786
v 2.1823956966400146 0 -0.75625401735305786
v 2.2811155319213867 0.58368468284606934 -0.31308987736701965
v 2.2811155319213867 0 -0.31308987736701965
v 2.2941820621490479 0.58368468284606934 0.14074859023094177
v 2.2941820621490479 0 0.14074859023094177
v 2.2211229801177979 0.58368468284606934 0.58885842561721802
v 2.2211229801177979 0 0.58885842561721802
v 2.0645787715911865 0.58368468284606934 1.0150438547134399
v 2.0645787715911865 0 1.0150438547134399
v 1.830207347869873 0.58368468284606934 1.4039013385772705
v 1.830207347869873 0 1.4039013385772705
v 1.5264796018600464 0.58368468284606934 1.7413766384124756
v 1.5264796018600464 0 1.7413766384124756
v 1.1643730401992798 0.58368468284606934 2.0152723789215088
v 1.1643730401992798 0 2.0152723789215088
v 0.75697505474090576 0.58368468284606934 2.2156894207000732
v 0.75697505474090576 0 2.2156894207000732
v 0.31901010870933533 0.58368468284606934 2.3353841304779053
v 0.31901010870933533 0 2.3353841304779053
v -0.13369256258010864 0.58368468284606934 2.3700301647186279
v -0.13369256258010864 0 2.3700301647186279
v -0.58477115631103516 0.58368468284606934 2.318375825881958
v -0.58477115631103516 0 2.318375825881958
v -1.0179225206375122 0.58368468284606934 2.1822876930236816
v -1.0179225206375122 0 2.1822876930236816
v -1.4174914360046387 0.58368468284606934 1.9666842222213745
v -1.4174914360046387 0 1.9666842222213745
v -1.7690362930297852 0.58368468284606934 1.6793582439422607
v -1.7690362930297852 0 1.6793582439422607
v -2.0598516464233398 0.58368468284606934 1.330694317817688
v -2.0598516464233398 0 1.330694317817688
v -2.2794263362884521 0.58368468284606934 0.93329405784606934
v -2.2794263362884521 0 0.93329405784606934
v -2.4198246002197266 0.58368468284606934 0.50152051448822021
v -2.4198246002197266 0 0.50152051448822021
v -2.4759721755981445 0.58368468284606934 0.050979092717170715
v -2.4759721755981445 0 0.050979092717170715
v -2.4458394050598145 0.58368468284606934 -0.40204641222953796
v -2.4458394050598145 0 -0.40204641222953796
v -2.3305153846740723 0.58368468284606934 -0.84118247032165527
v -2.3305153846740723 0 -0.84118247032165527
v -2.1341686248779297 0.58368468284606934 -1.250557541847229
v -2.1341686248779297 0 -1.250557541847229
v -1.8638952970504761 0.58368468284606934 -1.6153758764266968
v -1.8638952970504761 0 -1.6153758764266968
v -1.8638952970504761 0.58368468284606934 -1.6153758764266968
v -1.5294637680053711 0.58368468284606934 -1.9224518537521362
v -1.1429613828659058 0.58368468284606934 -2.1606869697570801
v -0.71835732460021973 0.58368468284606934 -2.3214709758758545
v -0.27099782228469849 0.58368468284606934 -2.3989923000335693
v 0.18294832110404968 0.58368468284606934 -2.3904495239257813
v 0.62707436084747314 0.58368468284606934 -2.2961511611938477
v 1.0453283786773682 0.58368468284606934 -2.1195056438446045
v 1.4225935935974121 0.58368468284606934 -1.8668971061706543
v 1.7452346086502075 0.58368468284606934 -1.5474556684494019
v 2.0015904903411865 0.58368468284606934 -1.1727267503738403
v 2.1823956966400146 0.58368468284606934 -0.75625401735305786
v 2.2811155319213867 0.58368468284606934 -0.31308987736701965
v 2.2941820621490479 0.58368468284606934 0.14074859023094177
v 2.2211229801177979 0.58368468284606934 0.58885842561721802
v 2.0645787715911865 0.58368468284606934 1.0150438547134399
v 1.830207347869873 0.58368468284606934 1.4039013385772705
v 1.5264796018600464 0.58368468284606934 1.7413766384124756
v 1.1643730401992798 0.58368468284606934 2.0152723789215088
v 0.75697505474090576 0.58368468284606934 2.2156894207000732
v 0.31901010870933533 0.58368468284606934 2.3353841304779053
v -0.13369256258010864 0.58368468284606934 2.3700301647186279
v -0.58477115631103516 0.58368468284606934 2.318375825881958
v -1.0179225206375122 0.58368468284606934 2.1822876930236816
v -1.4174914360046387 0.58368468284606934 1.9666842222213745
v -1.7690362930297852 0.58368468284606934 1.6793582439422607
v -2.0598516464233398 0.58368468284606934 1.330694317817688
v -2.2794263362884521 0.58368468284606934 0.93329405784606934
v -2.4198246002197266 0.58368468284606934 0.50152051448822021
v -2.4759721755981445 0.58368468284606934 0.050979092717170715
v -2.4458394050598145 0.58368468284606934 -0.40204641222953796
v -2.3305153846740723 0.58368468284606934 -0.84118247032165527
v -2.1341686248779297 0.58368468284606934 -1.250557541847229
v -1.8638952970504761 0 -1.6153758764266968
v -1.5294637680053711 0 -1.9224518537521362
v -1.1429613828659058 0 -2.1606869697570801
v -0.71835732460021973 0 -2.3214709758758545
v -0.27099782228469849 0 -2.3989923000335693
v 0.18294832110404968 0 -2.3904495239257813
v 0.62707436084747314 0 -2.2961511611938477
v 1.0453283786773682 0 -2.1195056438446045
v 1.4225935935974121 0 -1.8668971061706543
v 1.7452346086502075 0 -1.5474556684494019
v 2.0015904903411865 0 -1.1727267503738403
v 2.1823956966400146 0 -0.75625401735305786
v 2.2811155319213867 0 -0.31308987736701965
v 2.2941820621490479 0 0.14074859023094177
v 2.2211229801177979 0 0.58885842561721802
v 2.0645787715911865 0 1.0150438547134399
v 1.830207347869873 0 1.4039013385772705
v 1.5264796018600464 0 1.7413766384124756
v 1.1643730401992798 0 2.0152723789215088
v 0.75697505474090576 0 2.2156894207000732
v 0.31901010870933533 0 2.3353841304779053
v -0.13369256258010864 0 2.3700301647186279
v -0.58477115631103516 0 2.318375825881958
v -1.0179225206375122 0 2.1822876930236816
v -1.4174914360046387 0 1.9666842222213745
v -1.7690362930297852 0 1.6793582439422607
v -2.0598516464233398 0 1.330694317817688
v -2.2794263362884521 0 0.93329405784606934
v -2.4198246002197266 0 0.50152051448822021
v -2.4759721755981445 0 0.050979092717170715
v -2.4458394050598145 0 -0.40204641222953796
v -2.3305153846740723 0 -0.84118247032165527
v -2.1341686248779297 0 -1.250557541847229
vt 0 0
vt 0 0.52885252237319946
vt 0.030303031206130981 0
vt 0.030303031206130981 0.52885252237319946
vt 0.060606062412261963 0
vt 0.060606062412261963 0.52885252237319946
vt 0.090909093618392944 0
vt 0.090909093618392944 0.52885252237319946
vt 0.12121212482452393 0
vt 0.12121212482452393 0.52885252237319946
vt 0.15151515603065491 0
vt 0.15151515603065491 0.52885252237319946
vt 0.18181818723678589 0
vt 0.18181818723678589 0.52885252237319946
vt 0.21212121844291687 0
vt 0.21212121844291687 0.52885252237319946
vt 0.24242424964904785 0
vt 0.24242424964904785 0.52885252237319946
vt 0.27272728085517883 0
vt 0.27272728085517883 0.52885252237319946
vt 0.30303031206130981 0
vt 0.30303031206130981 0.52885252237319946
vt 0.3333333432674408 0
vt 0.3333333432674408 0.52885252237319946
vt 0.36363637447357178 0
vt 0.36363637447357178 0.52885252237319946
vt 0.39393940567970276 0
vt 0.39393940567970276 0.52885252237319946
vt 0.42424243688583374 0
vt 0.42424243688583374 0.52885252237319946
vt 0.45454546809196472 0
vt 0.45454546809196472 0.52885252237319946
vt 0.4848484992980957 0
vt 0.4848484992980957 0.52885252237319946
vt 0.5151515007019043 0
vt 0.5151515007019043 0.52885252237319946
vt 0.54545456171035767 0
vt 0.54545456171035767 0.52885252237319946
vt 0.57575756311416626 0
vt 0.57575756311416626 0.52885252237319946
vt 0.60606062412261963 0
vt 0.60606062412261963 0.52885252237319946
vt 0.63636362552642822 0
vt 0.63636362552642822 0.52885252237319946
vt 0.66666668653488159 0
vt 0.66666668653488159 0.52885252237319946
vt 0.69696968793869019 0
vt 0.69696968793869019 0.52885252237319946
vt 0.72727274894714355 0
vt 0.72727274894714355 0.52885252237319946
vt 0.75757575035095215 0
vt 0.75757575035095215 0.52885252237319946
vt 0.78787881135940552 0
vt 0.78787881135940552 0.52885252237319946
vt 0.81818181276321411 0
vt 0.81818181276321411 0.52885252237319946
vt 0.84848487377166748 0
vt 0.84848487377166748 0.52885252237319946
vt 0.87878787517547607 0
vt 0.87878787517547607 0.52885252237319946
vt 0.90909093618392944 0
vt 0.90909093618392944 0.52885252237319946
vt 0.93939393758773804 0
vt 0.93939393758773804 0.52885252237319946
vt 0.96969699859619141 0
vt 0.96969699859619141 0.52885252237319946
vt 1 0
vt 1 0.52885252237319946
vt 0.15921506285667419 0.52885305881500244
vt 0.12904924154281616 0.533119797706604
vt 0.099973700940608978 0.54576593637466431
vt 0.07303929328918457 0.56633436679840088
vt 0.04921950027346611 0.59408164024353027
vt 0.029375236481428146 0.62800496816635132
vt 0.014223720878362656 0.66687828302383423
vt 0.0043125706724822521 0.70929652452468872
vt 0 0.75372660160064697
vt 0.0014418762875720859 0.79856276512145996
vt 0.0085860863327980042 0.84218442440032959
vt 0.021174419671297073 0.88301509618759155
vt 0.038751903921365738 0.91957896947860718
vt 0.0606832355260849 0.95055454969406128
vt 0.086175769567489624 0.9748222827911377
vt 0.11430812627077103 0.99150508642196655
vt 0.1440635472536087 1
vt 0.17436657845973969 1
vt 0.20412199199199677 0.99150508642196655
vt 0.23225435614585876 0.9748222827911377
vt 0.25774687528610229 0.95055454969406128
vt 0.27967822551727295 0.91957896947860718
vt 0.29725569486618042 0.88301509618759155
vt 0.30984404683113098 0.84218442440032959
vt 0.31698822975158691 0.79856276512145996
vt 0.31843012571334839 0.75372660160064697
vt 0.31411755084991455 0.70929652452468872
vt 0.30420640110969543 0.66687828302383423
vt 0.28905487060546875 0.62800496816635132
vt 0.26921060681343079 0.59408164024353027
vt 0.24539083242416382 0.56633436679840088
vt 0.21845641732215881 0.54576593637466431
vt 0.18938086926937103 0.533119797706604
vt 0.15921506285667419 1
vt 0.12904924154281616 0.99573320150375366
vt 0.099973700940608978 0.98308712244033813
vt 0.07303929328918457 0.96251869201660156
vt 0.04921950027346611 0.93477135896682739
vt 0.029375236481428146 0.90084803104400635
vt 0.014223720878362656 0.86197477579116821
vt 0.0043125706724822521 0.81955653429031372
vt 0 0.77512645721435547
vt 0.0014418762875720859 0.73029029369354248
vt 0.0085860863327980042 0.68666857481002808
vt 0.021174419671297073 0.64583796262741089
vt 0.038751903921365738 0.60927408933639526
vt 0.0606832355260849 0.57829850912094116
vt 0.086175769567489624 0.55403077602386475
vt 0.11430812627077103 0.53734797239303589
vt 0.1440635472536087 0.52885305881500244
vt 0.17436657845973969 0.52885305881500244
vt 0.20412199199199677 0.53734797239303589
vt 0.23225435614585876 0.55403077602386475
vt 0.25774687528610229 0.57829850912094116
vt 0.27967822551727295 0.60927408933639526
vt 0.29725569486618042 0.64583796262741089
vt 0.30984404683113098 0.68666857481002808
vt 0.31698822975158691 0.73029029369354248
vt 0.31843012571334839 0.77512645721435547
vt 0.31411755084991455 0.81955653429031372
vt 0.30420640110969543 0.86197477579116821
vt 0.28905487060546875 0.90084803104400635
vt 0.26921060681343079 0.93477135896682739
vt 0.24539083242416382 0.96251869201660156
vt 0.21845641732215881 0.98308712244033813
vt 0.18938086926937103 0.99573320150375366
vn -0.7432941198348999 0 -0.66896474361419678
vn -0.7432941198348999 0 -0.66896474361419678
vn -0.60325944423675537 0 -0.79754501581192017
vn -0.60325944423675537 0 -0.79754501581192017
vn -0.44142138957977295 0 -0.89729994535446167
vn -0.44142138957977295 0 -0.89729994535446167
vn -0.26362919807434082 0 -0.96462410688400269
vn -0.26362919807434082 0 -0.96462410688400269
vn -0.076308749616146088 0 -0.99708425998687744
vn -0.076308749616146088 0 -0.99708425998687744
vn 0.11376968026161194 0 -0.99350714683532715
vn 0.11376968026161194 0 -0.99350714683532715
vn 0.29973617196083069 0 -0.9540221095085144
vn 0.29973617196083069 0 -0.9540221095085144
vn 0.47486943006515503 0 -0.88005626201629639
vn 0.47486943006515503 0 -0.88005626201629639
vn 0.63283967971801758 0 -0.77428287267684937
vn 0.63283967971801758 0 -0.77428287267684937
vn 0.76793742179870605 0 -0.64052486419677734
vn 0.76793742179870605 0 -0.64052486419677734
vn 0.87527990341186523 0 -0.48361665010452271
vn 0.87527990341186523 0 -0.48361665010452271
vn 0.95098751783370972 0 -0.30922925472259521
vn 0.95098751783370972 0 -0.30922925472259521
vn 0.99232393503189087 0 -0.12366549670696259
vn 0.99232393503189087 0 -0.12366549670696259
vn 0.9977952241897583 0 0.066367842257022858
vn 0.9977952241897583 0 0.066367842257022858
vn 0.96720355749130249 0 0.25400248169898987
vn 0.96720355749130249 0 0.25400248169898987
vn 0.90165466070175171 0 0.43245679140090942
vn 0.90165466070175171 0 0.43245679140090942
vn 0.80351758003234863 0 0.59528100490570068
vn 0.80351758003234863 0 0.59528100490570068
vn 0.67633932828903198 0 0.73659020662307739
vn 0.67633932828903198 0 0.73659020662307739
vn 0.52471637725830078 0 0.85127711296081543
vn 0.52471637725830078 0 0.85127711296081543
vn 0.35412880778312683 0 0.9351966381072998
vn 0.35412880778312683 0 0.9351966381072998
vn 0.17074210941791534 0 0.98531574010848999
vn 0.17074210941791534 0 0.98531574010848999
vn -0.0188156608492136 0 0.99982297420501709
vn -0.0188156608492136 0 0.99982297420501709
vn -0.20769338309764862 0 0.97819399833679199
vn -0.20769338309764862 0 0.97819399833679199
vn -0.38906452059745789 0 0.92121052742004395
vn -0.38906452059745789 0 0.92121052742004395
vn -0.55637383460998535 0 0.83093208074569702
vn -0.55637383460998535 0 0.83093208074569702
vn -0.70357435941696167 0 0.71062159538269043
vn -0.70357435941696167 0 0.71062159538269043
vn -0.82534593343734741 0 0.56462740898132324
vn -0.82534593343734741 0 0.56462740898132324
vn -0.91728729009628296 0 0.39822614192962646
vn -0.91728729009628296 0 0.39822614192962646
vn -0.97607547044754028 0 0.21743191778659821
vn -0.97607547044754028 0 0.21743191778659821
vn -0.99958580732345581 0 0.028779143467545509
vn -0.99958580732345581 0 0.028779143467545509
vn -0.98696845769882202 0 -0.16091379523277283
vn -0.98696845769882202 0 -0.16091379523277283
vn -0.93867951631546021 0 -0.34479087591171265
vn -0.93867951631546021 0 -0.34479087591171265
vn -0.85646426677703857 0 -0.51620632410049438
vn -0.85646426677703857 0 -0.51620632410049438
vn -0.7432941198348999 0 -0.66896474361419678
vn -0.7432941198348999 0 -0.66896474361419678
vn 0 1 0
vn 0 1 0
vn 0 1 0
vn 0 1 0
vn 0 1 0
vn 0 1 0
vn 0 1 0
vn 0 1 0
vn 0 1 0
vn 0 1 0
vn 0 1 0
vn 0 1 0
vn 0 1 0
vn 0 1 0
vn 0 1 0
vn 0 1 0
vn 0 1 0
vn 0 1 0
vn 0 1 0
vn 0 1 0
vn 0 1 0
vn 0 1 0
vn 0 1 0
vn 0 1 0
vn 0 1 0
vn 0 1 0
vn 0 1 0
vn 0 1 0
vn 0 1 0
vn 0 1 0
vn 0 1 0
vn 0 1 0
vn 0 1 0
vn 0 -1 0
vn 0 -1 0
vn 0 -1 0
vn 0 -1 0
vn 0 -1 0
vn 0 -1 0
vn 0 -1 0
vn 0 -1 0
vn 0 -1 0
vn 0 -1 0
vn 0 -1 0
vn 0 -1 0
vn 0 -1 0
vn 0 -1 0
vn 0 -1 0
vn 0 -1 0
vn 0 -1 0
vn 0 -1 0
vn 0 -1 0
vn 0 -1 0
vn 0 -1 0
vn 0 -1 0
vn 0 -1 0
vn 0 -1 0
vn 0 -1 0
vn 0 -1 0
vn 0 -1 0
vn 0 -1 0
vn 0 -1 0
vn 0 -1 0
vn 0 -1 0
vn 0 -1 0
vn 0 -1 0
f 89/89/89 88/88/88 87/87/87 86/86/86 85/85/85 84/84/84 83/83/83 82/82/82 81/81/81 80/80/80 79/79/79 78/78/78 77/77/77 76/76/76 75/75/75 74/74/74 73/73/73 72/72/72 71/71/71 70/70/70 69/69/69 101/101/101 100/100/100 99/99/99 98/98/98 97/97/97 96/96/96 95/95/95 94/94/94 93/93/93 92/92/92 91/91/91 90/90/90
f 121/121/121 122/122/122 123/123/123 124/124/124 125/125/125 126/126/126 127/127/127 128/128/128 129/129/129 130/130/130 131/131/131 132/132/132 133/133/133 134/134/134 102/102/102 103/103/103 104/104/104 105/105/105 106/106/106 107/107/107 108/108/108 109/109/109 110/110/110 111/111/111 112/112/112 113/113/113 114/114/114 115/115/115 116/116/116 117/117/117 118/118/118 119/119/119 120/120/120
f 1/1/1 3/3/3 4/4/4 2/2/2
f 3/3/3 5/5/5 6/6/6 4/4/4
f 5/5/5 7/7/7 8/8/8 6/6/6
f 7/7/7 9/9/9 10/10/10 8/8/8
f 9/9/9 11/11/11 12/12/12 10/10/10
f 11/11/11 13/13/13 14/14/14 12/12/12
f 13/13/13 15/15/15 16/16/16 14/14/14
f 15/15/15 17/17/17 18/18/18 16/16/16
f 17/17/17 19/19/19 20/20/20 18/18/18
f 19/19/19 21/21/21 22/22/22 20/20/20
f 21/21/21 23/23/23 24/24/24 22/22/22
f 23/23/23 25/25/25 26/26/26 24/24/24
f 25/25/25 27/27/27 28/28/28 26/26/26
f 27/27/27 29/29/29 30/30/30 28/28/28
f 29/29/29 31/31/31 32/32/32 30/30/30
f 31/31/31 33/33/33 34/34/34 32/32/32
f 33/33/33 35/35/35 36/36/36 34/34/34
f 35/35/35 37/37/37 38/38/38 36/36/36
f 37/37/37 39/39/39 40/40/40 38/38/38
f 39/39/39 41/41/41 42/42/42 40/40/40
f 41/41/41 43/43/43 44/44/44 42/42/42
f 43/43/43 45/45/45 46/46/46 44/44/44
f 45/45/45 47/47/47 48/48/48 46/46/46
f 47/47/47 49/49/49 50/50/50 48/48/48
f 49/49/49 51/51/51 52/52/52 50/50/50
f 51/51/51 53/53/53 54/54/54 52/52/52
f 53/53/53 55/55/55 56/56/56 54/54/54
f 55/55/55 57/57/57 58/58/58 56/56/56
f 57/57/57 59/59/59 60/60/60 58/58/58
f 59/59/59 61/61/61 62/62/62 60/60/60
f 61/61/61 63/63/63 64/64/64 62/62/62
f 63/63/63 65/65/65 66/66/66 64/64/64
f 65/65/65 67/67/67 68/68/68 66/66/66
